<svg xmlns="http://www.w3.org/2000/svg" viewBox="0 0 100 80" enable-background="new 0 0 100 80">
<path d="M50.8 0c-4.8 0-7.5 2.5-7.5 2.5l-22.5 20v.1l-.8-.1h-15c-2.8 0-5 2.2-5 5v24.2c0 2.8 2.2 5 5 5h15c.3 0 .6 0 .8-.1v.1l22.5 20.8s2.7 2.5 7.5 2.5 6.7-2.2 6.7-5v-70c0-2.8-1.9-5-6.7-5z" class="box"/>
<g class="waves"><path d="M75.7 41c.8-7-3.6-13.9-10-16.2 0 0-2.7-1-3.5 1.3-.8 3.1 1.3 3.5 1.3 3.5 4.8 1.1 7.8 5.8 7.2 10.8-.4 3.6-2.9 6.3-5.9 7.8.1 0-3.4.8-2.1 4 .7 2 4.1 1.3 4.1 1.3 4.8-2.1 8.3-7 8.9-12.5zM76.3 2.5s-2.6-1.3-3.7.4c-1.2 2 .7 3.4.7 3.4 13 5.6 22.4 19.5 21.6 34.5-.7 13.5-9.2 25.4-20.7 30.7 0 0-2.6 1.1-1.8 3.2 1 2.6 4.1 1 4.1 1 13.2-6 22.7-19.2 23.4-34.7.9-16.9-8.9-32-23.6-38.5zM87.4 41.2c.6-12.2-6.4-23-17-27.6 0 0-2.2-1-3.4.7-1.7 2.7.6 4.2.6 4.2 9 3.6 15.2 12.2 14.7 22.4-.4 8.5-6.5 15.7-13.5 19.4 0 0-2 .9-1 3.3.9 1.9 3.3 1 3.3 1 8.8-4.4 15.8-12.9 16.3-23.4z"/></g>
</svg>